<svg xmlns="http://www.w3.org/2000/svg" xmlns:xlink="http://www.w3.org/1999/xlink" version="1.1" id="Layer_1" x="0px" y="0px" width="100px" height="100px" viewBox="0 0 100 100" enable-background="new 0 0 100 100" xml:space="preserve">
<g id="Captions">
</g>
<path d="M50.001,99.75C22.567,99.75,0.25,77.432,0.25,50c0-27.433,22.317-49.75,49.751-49.75C77.434,0.25,99.75,22.567,99.75,50  C99.75,77.432,77.434,99.75,50.001,99.75z M50.001,8.256C26.982,8.256,8.257,26.982,8.257,50c0,23.018,18.726,41.744,41.744,41.744  c23.017,0,41.743-18.727,41.743-41.744C91.744,26.982,73.018,8.256,50.001,8.256z"/>
<path d="M46.916,53.084c-1.329-1.328-1.606-3.295-0.862-4.908l-3.182-3.182l-16.75,28.884l28.884-16.749l-3.186-3.184  C50.21,54.689,48.244,54.413,46.916,53.084z"/>
<path d="M53.084,46.916c1.328,1.329,1.605,3.295,0.861,4.906l3.184,3.185l16.749-28.884l-28.884,16.75l3.183,3.182  C49.788,45.31,51.755,45.587,53.084,46.916z"/>
</svg>